<?xml version="1.0" standalone="no"?>
<!DOCTYPE svg PUBLIC "-//W3C//DTD SVG 20010904//EN"
 "http://www.w3.org/TR/2001/REC-SVG-20010904/DTD/svg10.dtd">
<svg version="1.0" xmlns="http://www.w3.org/2000/svg"
 width="1080.000000pt" height="1080.000000pt" viewBox="0 0 1080.000000 1080.000000"
 preserveAspectRatio="xMidYMid meet">
<metadata>
Created by potrace 1.14, written by Peter Selinger 2001-2017
</metadata>
<g transform="translate(0.000000,1080.000000) scale(0.100000,-0.100000)"
fill="#000000" stroke="none">
<path d="M9637 8943 c-1 0 -56 -4 -122 -8 -66 -4 -136 -8 -155 -10 -19 -2 -62
-6 -95 -9 -165 -15 -491 -76 -705 -132 -323 -85 -751 -234 -1018 -355 -34 -16
-64 -29 -67 -29 -6 0 -181 -83 -320 -151 -162 -80 -399 -207 -490 -264 -22
-13 -58 -34 -79 -46 -41 -22 -208 -128 -284 -180 -23 -16 -45 -29 -48 -29 -4
0 -27 -15 -53 -34 -25 -18 -91 -64 -146 -101 -110 -75 -142 -98 -325 -235
-132 -99 -321 -247 -355 -278 -11 -10 -40 -34 -65 -53 -24 -19 -52 -41 -60
-49 -9 -8 -38 -33 -64 -55 -27 -22 -54 -44 -60 -50 -6 -5 -45 -39 -86 -75 -41
-36 -84 -74 -96 -85 -11 -11 -58 -54 -104 -95 -150 -135 -520 -507 -675 -680
-79 -88 -287 -335 -314 -373 -8 -12 -22 -28 -30 -37 -9 -9 -26 -29 -38 -46
-12 -16 -53 -70 -92 -121 -39 -51 -106 -143 -149 -206 -43 -63 -88 -127 -99
-143 -29 -41 -173 -278 -213 -349 -18 -33 -49 -87 -67 -120 -62 -111 -205
-409 -253 -530 -57 -144 -62 -157 -66 -170 -1 -5 -13 -39 -25 -75 -26 -76 -31
-91 -34 -105 -2 -5 -12 -41 -23 -80 -11 -38 -23 -83 -26 -100 -9 -46 -15 -73
-22 -97 -3 -13 -13 -81 -23 -153 -18 -129 -22 -461 -7 -545 4 -19 11 -64 18
-100 26 -147 107 -344 183 -440 39 -49 151 -156 195 -187 96 -65 224 -117 355
-144 64 -13 313 -16 380 -5 22 3 56 9 75 12 107 17 391 98 485 139 17 7 57 23
90 35 68 26 374 174 450 218 28 16 99 59 159 95 59 37 110 67 113 67 2 0 9 5
16 10 7 6 86 60 177 122 91 61 167 113 170 117 3 3 25 20 50 36 24 17 51 35
60 42 8 7 71 53 140 104 69 51 127 95 130 98 3 3 23 20 45 36 48 35 55 42 165
135 47 40 107 91 134 114 26 22 53 46 60 51 6 6 56 51 111 100 55 49 129 117
165 150 36 34 92 86 124 116 33 30 78 72 102 94 76 73 118 110 107 95 -45 -63
-165 -217 -235 -301 -108 -132 -266 -319 -287 -340 -9 -9 -32 -36 -51 -59 -52
-63 -60 -71 -127 -146 -34 -38 -70 -78 -80 -90 -31 -36 -137 -155 -163 -184
-14 -15 -61 -67 -105 -116 -44 -48 -87 -95 -95 -104 -8 -9 -53 -59 -100 -110
-47 -52 -92 -101 -100 -110 -13 -14 -147 -160 -211 -231 -13 -14 -64 -70 -114
-124 -49 -54 -94 -103 -100 -110 -5 -6 -42 -44 -80 -85 -39 -41 -109 -118
-157 -170 -47 -52 -97 -107 -110 -121 -107 -118 -212 -233 -258 -284 -30 -33
-113 -105 -183 -160 -70 -55 -138 -109 -152 -120 -13 -11 -47 -38 -75 -60 -29
-22 -84 -66 -124 -98 -39 -32 -78 -64 -86 -70 -31 -24 -196 -162 -211 -177 -9
-8 -29 -26 -45 -39 -87 -73 -196 -172 -372 -338 l-55 -53 698 0 699 0 34 38
c19 20 89 95 157 167 67 72 137 146 156 166 19 20 93 99 164 175 72 76 159
170 195 209 36 39 83 91 106 115 22 25 132 113 243 195 112 83 208 155 214
160 7 6 64 48 127 95 63 47 117 87 120 90 3 3 59 45 125 95 205 154 500 378
505 385 3 3 21 17 40 30 36 25 49 36 104 80 17 14 83 66 146 115 63 49 119 92
125 97 5 4 138 110 295 235 255 203 532 428 600 489 14 12 39 34 55 49 17 15
47 41 69 59 53 43 75 66 91 97 28 52 -39 136 -120 153 -16 4 -41 9 -55 11 -34
7 -194 7 -250 0 -71 -9 -179 -44 -245 -78 -33 -17 -62 -34 -65 -37 -3 -3 -27
-23 -55 -44 -27 -22 -57 -47 -66 -55 -19 -19 -55 -51 -159 -141 -41 -36 -80
-69 -86 -75 -6 -5 -35 -30 -64 -55 -29 -25 -58 -49 -64 -55 -6 -5 -34 -28 -61
-50 -28 -22 -55 -44 -61 -50 -6 -5 -28 -23 -49 -40 -20 -16 -42 -35 -49 -40
-6 -6 -42 -35 -81 -65 -38 -30 -79 -63 -90 -73 -47 -44 -57 -38 -19 11 21 28
50 65 64 82 14 18 51 69 83 114 33 44 62 83 66 86 4 3 36 46 71 95 35 50 67
92 70 95 3 3 32 41 64 85 50 67 81 107 154 200 4 6 93 120 197 255 156 202
694 880 764 963 11 12 47 56 81 97 34 41 66 77 69 80 4 3 14 14 22 26 8 12 33
43 55 70 23 27 79 94 124 149 46 55 102 123 125 150 23 28 149 176 280 330
130 154 246 291 258 305 141 163 168 205 165 249 -4 52 -98 127 -198 156 -76
22 -191 35 -305 35 -104 0 -126 -2 -182 -21 -64 -21 -43 -2 29 27 189 75 517
252 746 401 62 40 115 73 118 73 3 0 10 5 17 11 7 5 66 49 132 96 66 48 122
89 125 92 3 3 39 33 80 66 41 32 80 64 86 70 6 5 42 37 80 70 117 101 333 325
405 420 38 50 73 95 77 100 24 31 83 138 106 192 39 94 48 147 47 278 -2 223
-37 396 -112 550 -87 179 -213 276 -474 363 -79 27 -107 35 -175 49 -21 4 -66
10 -135 19 -52 6 -234 12 -238 7z m193 -704 c120 -35 160 -99 138 -218 -25
-135 -155 -312 -374 -511 -77 -71 -224 -189 -274 -222 -27 -18 -50 -36 -50
-40 0 -5 -5 -8 -10 -8 -6 0 -34 -17 -63 -38 -29 -22 -56 -41 -62 -43 -5 -2
-41 -25 -80 -50 -165 -109 -453 -266 -616 -334 -89 -38 -249 -96 -249 -90 0 2
-11 0 -25 -5 -25 -9 -41 -13 -115 -27 -19 -3 -66 -7 -105 -8 -114 -2 -144 30
-120 131 8 33 10 63 6 67 -15 15 -87 10 -122 -8 -65 -34 -176 -134 -256 -234
-77 -94 -112 -199 -108 -321 8 -251 245 -412 605 -412 178 0 377 45 603 137
37 15 71 25 74 21 4 -3 1 -6 -6 -6 -22 0 -95 -56 -161 -125 -120 -125 -196
-200 -281 -275 -46 -41 -113 -102 -149 -135 -63 -58 -146 -131 -240 -212 -24
-21 -51 -45 -60 -53 -9 -8 -47 -42 -85 -75 -39 -33 -75 -64 -81 -70 -6 -5 -24
-21 -40 -35 -104 -90 -170 -147 -184 -160 -9 -8 -28 -24 -41 -35 -28 -23 -148
-125 -165 -140 -24 -21 -63 -53 -164 -135 -58 -47 -107 -87 -110 -90 -3 -3
-72 -59 -155 -125 -82 -66 -155 -124 -161 -130 -6 -5 -26 -21 -44 -35 -18 -14
-38 -30 -44 -36 -6 -5 -147 -112 -313 -237 -265 -198 -334 -249 -402 -292 -8
-5 -22 -16 -30 -23 -28 -27 -568 -382 -579 -382 -7 0 -12 -4 -12 -10 0 -5 -5
-10 -11 -10 -6 0 -23 -8 -37 -19 -15 -10 -47 -29 -72 -43 -25 -14 -61 -35 -80
-46 -19 -12 -57 -33 -85 -47 -27 -14 -96 -50 -152 -80 -57 -29 -103 -51 -103
-48 0 3 -6 0 -14 -6 -14 -12 -189 -90 -216 -96 -8 -2 -46 -15 -85 -29 -156
-56 -226 -69 -365 -70 -129 -1 -181 16 -248 83 -38 37 -92 123 -95 151 0 3 -6
23 -12 45 -31 103 12 406 81 580 9 22 20 49 24 60 24 63 95 226 115 265 13 25
32 64 44 88 70 146 303 513 465 732 51 68 52 70 76 99 11 13 20 27 20 30 0 3
13 20 28 38 15 17 34 39 42 50 136 167 301 359 425 493 77 84 544 550 615 615
112 102 237 213 305 271 39 33 81 69 95 81 230 198 500 409 830 648 98 72 293
203 400 271 58 36 140 88 183 115 43 27 80 49 82 49 2 0 43 23 92 51 190 111
582 309 610 309 5 0 14 5 19 10 33 33 644 261 764 285 8 2 16 4 18 4 1 1 4 1
7 2 2 0 34 9 70 19 37 10 101 26 143 34 178 36 234 43 372 52 52 4 96 7 98 9
9 8 226 -5 262 -16z"/>
</g>
</svg>
