<?xml version="1.0" standalone="no"?>
<!DOCTYPE svg PUBLIC "-//W3C//DTD SVG 20010904//EN"
 "http://www.w3.org/TR/2001/REC-SVG-20010904/DTD/svg10.dtd">
<svg version="1.0" xmlns="http://www.w3.org/2000/svg"
 width="841.000000pt" height="841.000000pt" viewBox="0 0 841.000000 841.000000"
 preserveAspectRatio="xMidYMid meet">
<metadata>
Created by potrace 1.14, written by Peter Selinger 2001-2017
</metadata>
<g transform="translate(0.000000,841.000000) scale(0.100000,-0.100000)"
fill="#000000" stroke="none">
<path d="M2740 6723 c-44 -7 -75 -23 -89 -45 -7 -12 -153 -263 -324 -557 -170
-295 -335 -579 -365 -631 -31 -52 -84 -147 -120 -210 -35 -63 -94 -167 -132
-230 -159 -271 -464 -807 -482 -846 -17 -39 -17 -47 -4 -77 21 -52 291 -524
856 -1497 97 -168 237 -408 310 -535 73 -126 167 -288 209 -360 l77 -130 1482
-3 1482 -2 19 39 c11 21 133 235 270 475 l251 438 -34 67 c-79 158 -414 731
-427 731 -9 0 -99 -150 -370 -617 -90 -155 -169 -290 -175 -298 -11 -14 -119
-16 -1024 -18 l-1012 -2 -150 260 c-83 143 -307 536 -498 872 l-349 613 68
122 c72 131 359 633 636 1113 92 160 196 341 232 403 l65 112 1474 0 c811 0
1474 3 1474 7 0 16 -201 377 -396 709 l-53 91 -887 6 c-927 7 -1971 7 -2014 0z"/>
<path d="M3620 5110 c-17 -11 -5 -37 145 -290 50 -85 127 -217 171 -293 43
-76 95 -156 114 -178 l35 -39 735 -1 c404 -1 850 -4 991 -8 237 -6 259 -8 279
-26 35 -32 118 -172 517 -872 13 -24 27 -43 31 -43 21 1 309 482 404 675 59
120 59 139 -4 260 -110 214 -423 741 -471 794 l-27 31 -1453 0 c-923 0 -1457
-4 -1467 -10z"/>
</g>
</svg>
