<?xml version="1.0" standalone="no"?>
<!DOCTYPE svg PUBLIC "-//W3C//DTD SVG 20010904//EN"
 "http://www.w3.org/TR/2001/REC-SVG-20010904/DTD/svg10.dtd">
<svg version="1.0" xmlns="http://www.w3.org/2000/svg"
 width="841.000000pt" height="841.000000pt" viewBox="0 0 841.000000 841.000000"
 preserveAspectRatio="xMidYMid meet">
<metadata>
Created by potrace 1.14, written by Peter Selinger 2001-2017
</metadata>
<g transform="translate(0.000000,841.000000) scale(0.100000,-0.100000)"
fill="#000000" stroke="none">
<path d="M2727 6720 c-35 -7 -87 -43 -87 -62 0 -5 -9 -21 -19 -36 -16 -23
-415 -710 -489 -842 -14 -25 -71 -124 -127 -220 -56 -96 -115 -200 -132 -230
-16 -30 -42 -74 -56 -97 -15 -24 -27 -45 -27 -47 0 -2 -29 -53 -64 -113 -52
-89 -227 -392 -308 -533 -235 -410 -218 -364 -172 -454 35 -69 223 -400 318
-559 25 -43 46 -80 46 -82 0 -2 17 -32 38 -66 22 -35 51 -85 65 -111 15 -26
82 -143 150 -260 68 -117 127 -220 130 -228 4 -8 16 -28 27 -45 11 -16 23 -37
27 -45 3 -8 16 -31 28 -50 12 -19 33 -55 47 -80 14 -25 96 -166 183 -315 86
-148 204 -352 262 -452 57 -101 108 -183 111 -184 4 -1 671 -3 1482 -5 l1475
-3 38 67 c77 139 99 178 111 197 7 11 27 45 43 75 17 30 73 127 123 215 51 88
103 178 116 200 12 22 43 76 68 119 l45 80 -48 90 c-106 200 -402 706 -413
706 -6 0 -89 -139 -392 -660 -76 -129 -144 -244 -152 -255 -14 -19 -35 -19
-1023 -22 -794 -2 -1011 0 -1019 10 -5 6 -21 32 -34 57 -40 71 -177 309 -213
370 -18 30 -44 75 -57 100 -14 25 -78 137 -143 250 -64 113 -205 360 -312 550
-107 190 -204 359 -214 376 l-19 32 28 53 c36 67 75 137 118 212 19 32 34 60
34 63 0 3 8 17 19 32 10 15 81 137 157 272 77 135 144 252 149 262 6 9 35 61
66 115 31 54 107 186 169 293 62 107 144 249 182 315 38 66 72 123 76 127 4 4
666 8 1472 9 806 1 1469 3 1473 6 10 6 -50 118 -231 433 -52 91 -103 179 -112
195 -10 17 -36 61 -58 100 l-41 69 -168 3 c-407 7 -2712 9 -2746 3z"/>
<path d="M3663 5112 c-29 -2 -53 -5 -53 -8 0 -10 36 -74 145 -259 62 -104 149
-254 195 -333 45 -79 94 -156 109 -172 l26 -29 985 -3 c1136 -3 1011 10 1088
-120 26 -43 76 -127 111 -186 35 -59 76 -129 91 -157 15 -27 57 -101 94 -164
36 -62 66 -115 66 -116 0 -3 111 -199 114 -203 14 -13 360 566 422 705 46 106
43 117 -129 423 -11 19 -31 55 -45 80 -135 239 -310 521 -334 537 -12 7 -2763
12 -2885 5z"/>
</g>
</svg>
