<?xml version="1.0" standalone="no"?>
<!DOCTYPE svg PUBLIC "-//W3C//DTD SVG 20010904//EN"
 "http://www.w3.org/TR/2001/REC-SVG-20010904/DTD/svg10.dtd">
<svg version="1.0" xmlns="http://www.w3.org/2000/svg"
 width="1284.000000pt" height="1284.000000pt" viewBox="0 0 1284.000000 1284.000000"
 preserveAspectRatio="xMidYMid meet">
<metadata>
Created by potrace 1.14, written by Peter Selinger 2001-2017
</metadata>
<g transform="translate(0.000000,1284.000000) scale(0.100000,-0.100000)"
fill="#000000" stroke="none">
<path d="M8157 11475 c-41 -14 -104 -58 -127 -89 -21 -28 -41 -86 -34 -98 12
-20 62 -29 149 -29 49 1 101 3 115 6 141 28 162 37 165 74 2 31 -57 95 -112
121 -58 28 -106 32 -156 15z"/>
<path d="M7033 11245 c-34 -18 -78 -50 -98 -72 -36 -39 -91 -138 -101 -183
-22 -99 -4 -212 46 -286 39 -55 69 -58 122 -11 20 17 61 53 90 79 118 102 328
319 328 338 0 5 5 10 10 10 6 0 10 10 10 23 0 24 -37 67 -58 67 -7 0 -12 3
-12 8 0 22 -141 60 -219 60 -42 -1 -70 -9 -118 -33z"/>
<path d="M8100 11069 c-51 -16 -88 -46 -121 -98 -52 -85 -118 -131 -198 -138
-51 -4 -61 -2 -111 31 -30 20 -63 37 -75 37 -11 1 -27 2 -35 3 -26 3 -67 -22
-73 -44 -3 -11 -1 -20 4 -20 5 0 9 -5 9 -11 0 -18 230 -255 386 -398 74 -68
287 -264 294 -271 3 -3 26 -24 51 -48 l46 -43 46 43 c25 24 78 72 117 108 253
228 292 286 292 421 -1 146 -44 187 -231 225 -67 13 -123 51 -159 109 -27 44
-55 71 -90 85 -37 16 -114 20 -152 9z"/>
<path d="M7271 10663 c-23 -9 -50 -41 -65 -76 -13 -31 -12 -38 13 -88 14 -30
31 -70 38 -88 15 -42 11 -174 -11 -307 -29 -187 -36 -298 -21 -325 13 -21 81
-55 220 -109 61 -23 119 -46 130 -50 29 -12 125 -39 160 -46 29 -5 77 15 125
53 8 6 49 38 90 71 90 70 187 168 196 195 6 19 -3 30 -127 156 -78 78 -228
221 -349 331 -63 57 -121 110 -128 117 -7 7 -34 29 -60 50 -26 21 -48 41 -50
45 -2 4 -24 20 -50 37 -50 31 -88 43 -111 34z"/>
<path d="M9227 10434 c-1 -2 -36 -5 -77 -8 -41 -3 -75 -6 -75 -6 0 -2 -27 -7
-80 -15 -82 -12 -158 -59 -261 -164 -104 -104 -180 -189 -227 -252 l-28 -38
33 -24 c93 -71 409 -238 523 -277 54 -19 77 -20 245 -16 102 3 203 7 225 11
22 3 70 10 107 15 70 10 149 40 174 65 19 19 34 68 29 98 -2 12 -6 33 -8 47
-12 65 -161 366 -214 431 -78 95 -151 129 -284 134 -43 1 -80 1 -82 -1z"/>
<path d="M8296 9759 c-69 -43 -279 -256 -343 -350 -59 -86 -132 -226 -145
-279 -30 -122 -16 -152 74 -165 29 -4 62 -9 73 -11 11 -3 121 -5 245 -6 312
-1 331 6 495 168 141 139 245 271 245 310 0 51 -198 182 -430 284 -121 54
-183 68 -214 49z"/>
<path d="M7147 9522 c-26 -29 -35 -64 -41 -164 -3 -53 -8 -111 -11 -130 -19
-129 -47 -316 -50 -333 -3 -11 -7 -40 -10 -65 -3 -25 -10 -70 -15 -100 -4 -30
-7 -88 -7 -128 l2 -74 45 -40 c52 -46 152 -107 230 -141 41 -17 64 -22 88 -16
77 16 112 112 208 579 9 41 20 95 26 120 5 25 11 56 14 70 3 14 7 33 10 42 3
10 7 30 10 45 3 16 11 53 19 83 11 46 13 80 6 111 -2 11 -78 47 -161 77 -233
83 -330 100 -363 64z"/>
<path d="M9580 9474 c-141 -19 -163 -23 -225 -39 -69 -18 -157 -59 -193 -89
-90 -77 -221 -225 -319 -364 -26 -36 -28 -48 -10 -55 22 -8 293 -5 355 5 31 4
73 11 92 13 99 15 236 77 293 133 71 71 98 108 153 216 73 141 79 163 52 177
-30 16 -98 17 -198 3z"/>
<path d="M7887 8784 c-1 -1 -24 -5 -50 -8 -26 -4 -63 -14 -82 -23 -32 -15 -36
-22 -49 -87 -40 -188 -53 -389 -26 -407 14 -9 96 -6 170 6 19 4 73 13 119 21
125 21 162 35 202 75 30 30 52 79 59 129 0 3 8 32 18 65 10 33 19 81 21 106 2
43 0 48 -31 66 -29 18 -56 28 -108 40 -41 9 -236 23 -243 17z"/>
<path d="M7003 8269 c-43 -16 -75 -96 -107 -269 -9 -47 -18 -96 -21 -110 -3
-14 -6 -61 -7 -106 -2 -118 21 -150 187 -260 101 -67 190 -114 217 -114 50 0
76 77 93 275 3 39 8 84 11 100 3 17 7 77 9 134 6 147 -8 170 -150 257 -130 80
-196 107 -232 93z"/>
<path d="M10688 8243 c-67 -55 -345 -343 -438 -454 -25 -30 -55 -65 -68 -78
-37 -37 -112 -144 -112 -158 0 -7 6 -14 13 -15 55 -7 128 -3 185 9 37 8 74 16
83 18 9 2 33 6 54 9 20 4 40 8 44 11 4 2 18 6 32 8 13 3 53 13 89 22 36 9 72
18 80 20 8 2 49 13 90 24 41 12 86 24 100 27 42 8 213 63 253 81 46 20 47 36
5 111 -90 163 -305 392 -368 392 -5 0 -23 -12 -42 -27z"/>
<path d="M8029 8106 c-2 -2 -35 -7 -74 -11 -38 -4 -83 -9 -100 -11 -16 -3 -57
-7 -90 -8 -77 -4 -119 -26 -145 -76 -21 -41 -50 -150 -56 -210 -7 -65 -14
-125 -19 -155 -12 -68 -15 -275 -4 -298 18 -40 78 -61 204 -72 39 -3 88 -8
110 -10 36 -4 203 -17 215 -17 32 -1 43 7 58 40 14 32 17 86 19 372 3 340 -2
407 -34 442 -14 16 -72 25 -84 14z"/>
<path d="M3257 7727 c-83 -44 -290 -168 -332 -199 -5 -5 -37 -29 -70 -54 -33
-25 -63 -51 -67 -59 -7 -12 8 -27 113 -108 49 -38 351 -240 459 -307 30 -19
57 -37 60 -40 3 -3 14 -10 25 -17 137 -83 189 -112 239 -134 91 -41 105 -27
77 78 -35 133 -239 632 -328 806 -25 48 -51 87 -59 87 -8 0 -60 -24 -117 -53z"/>
<path d="M6813 7426 c-11 -13 -27 -43 -37 -67 -10 -24 -22 -53 -27 -64 -7 -18
-36 -126 -44 -166 -2 -8 -6 -42 -9 -74 -8 -67 10 -105 48 -105 55 0 197 64
331 148 75 48 85 57 85 85 0 29 -136 154 -239 220 -72 47 -87 50 -108 23z"/>
<path d="M7455 7060 c-27 -4 -59 -10 -70 -13 -118 -31 -435 -227 -435 -270 0
-34 311 -327 348 -327 8 0 28 10 45 22 51 35 290 211 312 230 11 9 88 70 170
136 181 143 242 198 233 207 -21 21 -485 33 -603 15z"/>
<path d="M8036 6755 c-119 -63 -356 -239 -467 -346 -53 -52 -67 -71 -62 -87 8
-33 115 -135 196 -188 65 -43 77 -48 132 -48 44 0 72 6 105 23 25 13 47 27 50
31 3 4 23 19 45 33 71 45 115 93 135 144 16 42 18 71 15 204 -2 84 -5 161 -8
169 -2 8 -7 27 -12 43 -14 52 -58 60 -129 22z"/>
<path d="M10950 6756 c0 -5 -3 -7 -6 -4 -3 4 -56 -12 -117 -34 -62 -22 -161
-55 -222 -75 -60 -19 -153 -48 -205 -65 -52 -17 -99 -31 -105 -33 -23 -5 -105
-39 -145 -60 -37 -20 -35 -31 12 -62 24 -15 45 -31 46 -35 2 -5 8 -8 14 -8 6
0 34 -14 62 -31 65 -40 401 -211 526 -268 237 -108 252 -111 278 -53 14 31 16
76 16 292 0 140 -3 271 -6 290 -13 66 -35 114 -60 133 -27 20 -88 29 -88 13z"/>
<path d="M6614 6703 c-14 -21 -53 -87 -86 -148 -98 -177 -103 -187 -148 -264
-71 -121 -63 -153 80 -322 138 -163 222 -236 262 -226 32 8 122 109 233 262
194 266 196 294 41 442 -145 138 -329 293 -348 293 -4 0 -20 -17 -34 -37z"/>
<path d="M1926 6608 c-13 -24 -34 -68 -47 -98 -12 -30 -26 -59 -31 -64 -4 -6
-8 -19 -8 -31 0 -12 -4 -25 -9 -30 -7 -8 -31 -70 -36 -95 -1 -3 -14 -45 -30
-95 -30 -96 -62 -232 -59 -252 1 -7 2 -20 3 -28 2 -21 48 -41 106 -45 157 -12
690 -3 885 14 15 1 25 8 25 18 0 22 -82 113 -276 307 -301 301 -456 441 -488
441 -5 0 -21 -19 -35 -42z"/>
<path d="M7319 6151 c-42 -17 -131 -120 -240 -281 -80 -118 -159 -256 -159
-278 0 -19 111 -124 215 -203 334 -254 585 -339 669 -226 17 24 20 42 20 140
-1 123 -10 250 -24 312 -5 22 -11 56 -13 75 -6 48 -36 160 -50 186 -15 27 -86
88 -202 174 -125 93 -176 117 -216 101z"/>
<path d="M8100 6000 c-14 -11 -30 -20 -36 -20 -5 0 -32 -20 -60 -44 l-49 -44
0 -119 c0 -65 4 -147 8 -183 13 -105 15 -122 22 -185 7 -63 24 -135 35 -148
13 -15 55 -17 110 -6 134 27 143 46 143 309 0 107 -2 209 -6 225 -3 17 -8 50
-13 75 -4 25 -15 62 -26 83 -38 77 -79 95 -128 57z"/>
<path d="M6125 5976 c-16 -6 -59 -28 -96 -48 -83 -48 -176 -86 -309 -127 -58
-18 -112 -35 -120 -38 -8 -4 -17 -7 -20 -8 -25 -8 -60 -30 -64 -41 -4 -11 27
-59 54 -84 37 -34 102 -226 124 -365 25 -162 34 -250 35 -338 1 -48 5 -62 26
-83 21 -21 32 -24 58 -19 72 14 211 76 387 173 152 83 193 121 276 247 60 93
134 243 134 271 0 11 -23 49 -51 85 -67 85 -359 374 -384 381 -11 2 -33 0 -50
-6z"/>
<path d="M5088 5623 c-73 -86 -199 -672 -174 -806 12 -62 79 -78 341 -77 203
0 233 9 256 77 22 69 13 365 -16 507 -16 74 -41 120 -96 175 -101 100 -273
168 -311 124z"/>
<path d="M4640 5464 c-147 -70 -372 -207 -476 -289 -70 -56 -164 -147 -184
-180 -53 -85 -13 -147 108 -170 9 -2 17 -4 17 -6 0 -1 9 -3 20 -4 11 -2 43 -6
70 -9 28 -4 66 -9 85 -12 19 -3 105 -7 190 -9 161 -3 224 7 226 35 0 13 14 98
19 125 36 161 83 438 91 528 l4 47 -30 -2 c-17 -1 -80 -26 -140 -54z"/>
<path d="M6779 5397 c-41 -32 -151 -234 -165 -306 -8 -38 21 -87 91 -155 69
-66 243 -196 263 -196 9 0 32 9 50 20 18 11 39 20 46 20 8 0 16 3 18 8 2 4 23
18 48 31 98 52 260 165 260 181 0 25 -462 350 -497 350 -6 0 -13 3 -15 8 -1 4
-21 17 -43 29 -32 17 -43 19 -56 10z"/>
<path d="M8100 5054 c-30 -8 -65 -17 -78 -19 -81 -18 -275 -96 -286 -114 -4
-7 37 -138 47 -147 4 -4 7 -16 7 -26 0 -10 4 -26 10 -36 5 -9 25 -64 45 -122
20 -58 42 -121 50 -140 7 -19 32 -87 55 -150 23 -63 45 -124 50 -135 5 -11 19
-48 32 -83 30 -82 55 -100 116 -83 64 17 149 59 178 88 44 44 56 89 57 208 0
61 -3 139 -8 175 -4 36 -8 76 -10 90 -11 104 -18 157 -20 171 -2 9 -6 40 -10
70 -4 30 -9 68 -11 84 -7 59 -34 145 -51 165 -21 24 -88 26 -173 4z"/>
<path d="M6390 4891 c-69 -23 -226 -97 -235 -111 -3 -6 -11 -8 -16 -5 -5 4 -9
1 -9 -4 0 -6 -4 -11 -10 -11 -14 0 -114 -65 -155 -101 -49 -43 -47 -75 8 -125
41 -38 132 -104 143 -104 3 0 10 -5 17 -10 56 -49 450 -261 515 -277 39 -10
43 -9 62 15 11 14 23 36 26 49 4 12 9 23 13 23 4 0 8 6 8 13 0 6 15 55 33 107
17 52 33 104 35 115 2 11 6 36 10 57 11 66 -31 127 -159 231 -21 18 -43 37
-50 42 -40 36 -165 117 -178 114 -2 0 -28 -8 -58 -18z"/>
<path d="M7425 4790 c-39 -20 -100 -56 -135 -80 -196 -132 -248 -203 -333
-450 -56 -163 -66 -244 -37 -299 27 -51 119 -108 154 -95 8 3 40 38 70 77 31
40 60 77 64 82 22 27 206 312 262 405 127 210 151 275 127 344 -23 66 -64 70
-172 16z"/>
<path d="M3629 4756 c-13 -5 -40 -16 -59 -24 -19 -7 -42 -18 -50 -23 -8 -5
-26 -14 -39 -19 -47 -21 -186 -109 -230 -146 -40 -34 -42 -39 -26 -50 24 -18
127 -56 250 -93 137 -41 150 -44 232 -45 58 -1 77 3 100 20 60 44 119 203 101
271 -6 22 -22 42 -51 61 -85 57 -164 74 -228 48z"/>
<path d="M4123 4591 c-58 -37 -133 -197 -133 -287 0 -33 27 -112 47 -135 7 -8
13 -19 13 -23 0 -19 127 -162 270 -306 180 -179 203 -194 273 -175 27 7 61 22
77 34 16 11 33 21 37 21 13 0 108 92 128 123 10 15 18 41 17 56 -2 74 -236
573 -300 640 -49 51 -90 62 -257 68 -127 4 -143 2 -172 -16z"/>
<path d="M4855 4556 c-45 -10 -50 -14 -51 -40 -1 -33 49 -181 94 -279 18 -38
32 -75 32 -83 0 -8 5 -14 10 -14 6 0 10 -6 10 -13 0 -7 23 -50 51 -95 33 -54
56 -82 68 -82 25 0 154 53 171 70 3 3 27 16 53 29 69 35 132 98 161 162 32 69
56 173 52 224 -8 111 -77 135 -396 133 -113 0 -227 -6 -255 -12z"/>
<path d="M5691 4398 c-7 -23 -15 -58 -17 -78 -3 -19 -7 -46 -9 -60 -11 -54 -6
-128 9 -157 20 -40 78 -97 189 -189 51 -42 114 -95 141 -117 159 -136 246
-187 299 -173 61 15 257 238 257 292 0 13 -3 24 -7 24 -5 0 -22 12 -38 28 -17
15 -64 50 -105 77 -41 28 -76 53 -78 58 -2 4 -7 7 -12 7 -4 0 -57 31 -117 69
-194 121 -414 240 -474 254 -24 6 -27 3 -38 -35z"/>
<path d="M7653 4371 c-16 -14 -53 -57 -81 -96 -29 -38 -56 -74 -60 -80 -4 -5
-29 -46 -56 -90 -27 -44 -55 -87 -63 -96 -7 -9 -10 -19 -6 -22 3 -4 1 -7 -5
-7 -6 0 -17 -12 -25 -27 -8 -16 -35 -64 -61 -108 -54 -94 -58 -130 -18 -167
54 -52 142 -106 165 -103 50 8 86 23 163 70 101 61 184 120 247 175 53 47 57
65 31 151 -18 62 -72 225 -83 254 -51 126 -78 172 -105 172 -8 0 -27 -12 -43
-26z"/>
<path d="M2936 4309 c-16 -4 -42 -21 -58 -36 -35 -33 -125 -152 -156 -206 -27
-47 -23 -99 11 -136 13 -14 41 -46 63 -70 62 -71 86 -91 106 -91 18 0 88 61
88 78 0 5 66 77 148 162 81 84 157 167 170 183 25 35 29 66 7 68 -8 1 -18 2
-22 3 -5 1 -30 7 -58 14 -27 6 -68 14 -90 17 -22 3 -53 8 -70 10 -60 10 -111
12 -139 4z"/>
<path d="M3572 4187 c-55 -31 -109 -168 -132 -336 -6 -44 -13 -95 -15 -113
-14 -100 -16 -237 -5 -258 11 -20 17 -22 68 -16 32 3 68 8 82 10 14 3 52 10
85 15 33 6 69 13 80 15 11 2 43 7 70 10 28 4 61 9 75 11 35 6 209 35 245 41
49 8 136 32 143 39 13 12 -50 91 -198 249 -276 294 -409 382 -498 333z"/>
<path d="M5460 3889 c-30 -11 -66 -24 -80 -28 -78 -27 -480 -219 -569 -273
-119 -72 -141 -90 -141 -118 0 -75 179 -391 251 -443 23 -17 30 -17 52 -5 37
19 131 98 153 129 18 25 84 108 122 154 34 40 215 298 273 388 97 151 106 188
51 201 -15 4 -34 9 -42 11 -8 2 -40 -5 -70 -16z"/>
<path d="M8347 3893 c-10 -3 -73 -41 -140 -86 -67 -45 -204 -132 -305 -192
-101 -61 -200 -120 -220 -133 -20 -13 -45 -25 -54 -29 -10 -3 -18 -10 -18 -17
0 -18 304 -333 364 -377 61 -45 95 -38 206 45 229 171 293 273 285 456 -2 52
-6 106 -9 120 -2 14 -8 43 -11 65 -17 99 -56 158 -98 148z"/>
<path d="M2523 3829 c-12 -4 -28 -17 -35 -29 -7 -11 -17 -20 -23 -20 -14 0
-69 -110 -94 -185 -29 -90 -48 -203 -50 -303 -3 -108 8 -126 73 -119 89 10
250 95 358 189 76 67 90 93 73 141 -17 49 -85 140 -205 270 -53 59 -68 67 -97
56z"/>
<path d="M6708 3743 c-24 -21 -51 -47 -61 -58 -84 -92 -128 -148 -151 -192
-15 -31 -15 -33 11 -65 40 -49 100 -104 178 -163 193 -145 277 -133 477 67 61
61 77 96 60 133 -10 21 -75 80 -161 145 -18 14 -38 30 -44 35 -36 31 -129 96
-163 114 -59 32 -96 28 -146 -16z"/>
<path d="M5785 3657 c-46 -34 -132 -122 -225 -232 -47 -55 -87 -102 -90 -105
-3 -3 -65 -80 -137 -171 -209 -264 -257 -340 -248 -389 7 -37 68 -131 91 -142
34 -16 69 9 225 162 218 215 299 288 327 295 14 3 66 37 116 74 128 96 128 97
223 187 l85 81 -15 29 c-33 63 -253 234 -300 234 -12 0 -35 -11 -52 -23z"/>
<path d="M4357 3404 c-1 -1 -20 -4 -42 -7 -57 -8 -185 -27 -220 -33 -16 -2
-46 -7 -65 -9 -38 -4 -86 -12 -110 -18 -8 -2 -40 -9 -71 -16 -61 -13 -95 -40
-107 -87 -9 -31 -8 -241 2 -364 3 -41 8 -111 11 -155 7 -92 32 -195 51 -202
11 -4 53 17 80 42 34 30 55 45 63 45 5 0 11 3 13 8 2 4 39 35 83 69 44 35 85
66 90 71 131 103 161 127 165 131 3 4 39 33 80 66 41 33 80 65 86 70 7 6 39
33 72 60 34 28 64 58 67 68 11 31 -117 231 -165 257 -16 8 -75 11 -83 4z"/>
<path d="M3408 3266 c-37 -27 -52 -121 -51 -316 0 -187 18 -330 48 -390 13
-26 79 -67 105 -66 39 2 54 140 36 336 -3 41 -9 107 -12 145 -11 147 -31 249
-53 276 -20 24 -51 31 -73 15z"/>
<path d="M7385 3267 c-127 -78 -307 -240 -322 -292 -12 -37 0 -104 30 -169 8
-17 34 -74 58 -126 24 -52 46 -97 49 -100 3 -3 14 -22 25 -44 11 -21 36 -56
55 -77 l35 -39 100 77 c55 42 132 102 171 132 39 31 86 67 104 81 18 14 59 45
90 70 32 25 74 58 95 75 l37 29 -49 46 c-67 60 -186 167 -211 188 -55 47 -71
59 -131 103 -73 53 -106 64 -136 46z"/>
<path d="M6304 3260 c-63 -14 -141 -76 -149 -120 -7 -36 11 -57 80 -91 49 -24
92 -59 173 -140 123 -122 124 -123 202 -60 70 55 120 113 120 137 0 15 -23 41
-68 80 -37 33 -74 64 -84 69 -9 6 -37 25 -62 43 -26 17 -51 32 -57 32 -5 0 -9
3 -9 8 0 22 -102 51 -146 42z"/>
<path d="M8415 3072 c-54 -30 -75 -45 -148 -112 -67 -60 -82 -97 -60 -142 43
-89 207 -293 256 -319 11 -6 23 -7 28 -2 18 18 31 133 31 283 1 143 -1 175
-18 268 -9 49 -31 55 -89 24z"/>
<path d="M4674 2917 c-50 -33 -219 -158 -264 -196 -14 -11 -63 -50 -110 -87
-88 -69 -141 -112 -175 -142 -11 -10 -45 -38 -75 -63 -30 -24 -75 -63 -99 -87
-37 -35 -43 -45 -31 -53 41 -26 302 -176 350 -201 32 -16 71 -28 93 -28 53 0
198 74 405 207 45 29 87 53 92 53 4 0 10 3 12 8 2 4 21 19 43 33 65 44 105 81
105 98 0 16 -39 97 -89 186 -35 61 -95 159 -101 165 -3 3 -20 28 -38 56 -55
87 -60 89 -118 51z"/>
<path d="M6756 2737 c-127 -132 -151 -199 -120 -347 7 -36 16 -80 19 -99 3
-19 7 -43 10 -55 2 -12 7 -38 10 -59 6 -46 31 -107 43 -107 15 0 260 127 272
141 3 3 19 13 35 22 33 17 62 46 60 62 -10 82 -132 397 -176 454 -11 13 -19
28 -19 33 0 14 -26 38 -41 38 -7 0 -49 -38 -93 -83z"/>
<path d="M8001 2694 c-33 -15 -151 -91 -161 -104 -8 -10 -222 -177 -331 -257
-115 -85 -150 -140 -151 -240 -1 -68 9 -134 22 -147 6 -6 10 -18 10 -28 0 -10
12 -25 26 -34 23 -15 31 -16 77 -4 29 7 149 63 267 123 293 151 299 150 485
-8 122 -103 184 -139 224 -130 57 12 75 117 35 204 -88 195 -414 646 -462 640
-4 0 -22 -7 -41 -15z"/>
<path d="M3371 2307 c-10 -26 -8 -67 8 -164 7 -38 14 -86 16 -104 2 -19 4 -34
5 -34 3 0 8 -37 15 -107 8 -82 30 -175 47 -195 6 -8 15 -10 22 -4 6 5 27 12
46 16 39 8 311 107 377 136 23 11 44 19 47 19 3 0 40 16 82 35 l77 35 -39 29
c-22 15 -67 43 -99 61 -33 18 -64 36 -70 40 -40 28 -398 210 -473 239 l-53 21
-8 -23z"/>
<path d="M5155 2292 c-184 -101 -526 -335 -540 -370 -11 -30 62 -93 220 -189
210 -127 269 -143 321 -89 22 23 49 95 58 156 3 19 8 44 10 56 2 12 7 45 11
75 3 30 8 65 10 79 13 79 20 154 20 225 l0 80 -30 2 c-18 2 -51 -9 -80 -25z"/>
<path d="M7065 2036 c-99 -36 -258 -129 -300 -176 -38 -42 -19 -173 46 -307
44 -92 131 -163 219 -178 74 -13 206 -8 238 9 39 20 41 46 12 191 -26 133 -26
135 -51 229 -11 45 -22 86 -23 91 -12 57 -54 152 -69 158 -7 3 -39 -5 -72 -17z"/>
<path d="M7914 1906 c-27 -13 -80 -42 -118 -64 -37 -23 -70 -42 -72 -42 -3 0
-10 -5 -17 -10 -7 -6 -46 -33 -87 -60 -93 -61 -132 -96 -153 -137 -23 -43 -21
-65 8 -128 36 -74 70 -90 195 -89 90 0 196 10 211 20 4 2 40 11 80 19 130 27
297 79 354 110 22 12 48 37 57 55 15 28 15 37 3 59 -28 55 -110 127 -245 218
-110 73 -146 81 -216 49z"/>
<path d="M4320 1778 c-30 -4 -62 -11 -70 -14 -8 -3 -16 -5 -17 -5 -6 0 -262
-88 -303 -104 -79 -31 -211 -94 -241 -116 -28 -20 -29 -22 -13 -40 9 -10 37
-29 63 -42 50 -27 181 -70 189 -63 2 3 15 1 29 -5 56 -21 454 -31 689 -16 167
10 304 44 304 75 0 26 -260 189 -453 284 -108 54 -115 55 -177 46z"/>
</g>
</svg>
